<svg fill="#FD7E14" xmlns="http://www.w3.org/2000/svg"  viewBox="0 0 50 50" width="1000px" height="1000px"><path d="M44.999,19.932l-1.493-1.494c-1.353-1.353-3.154-2.098-5.073-2.098c-1.918,0-3.72,0.745-5.072,2.098l-9.28,9.28	c-0.672,0.671-1.768,0.673-2.439,0l-1.494-1.494c-0.672-0.672-0.672-1.767,0-2.439l6.865-6.865c0.515-0.515,0.799-1.199,0.799-1.926	c0-0.728-0.284-1.412-0.799-1.927c-1.029-1.029-2.824-1.029-3.854,0l-6.864,6.865c-1.354,1.353-2.099,3.154-2.099,5.073	s0.745,3.72,2.099,5.073l1.494,1.494c1.353,1.353,3.154,2.099,5.073,2.099c1.918,0,3.72-0.746,5.072-2.099l9.279-9.28	c0.671-0.671,1.768-0.673,2.44,0l1.493,1.494c0.672,0.672,0.672,1.767,0,2.439L26.305,41.066c-0.671,0.671-1.767,0.673-2.439,0	L9.023,26.224c-0.672-0.672-0.672-1.767,0-2.439L23.865,8.943c0.673-0.673,1.769-0.671,2.439,0l5.753,5.752	c0.514,0.515,1.197,0.799,1.925,0.799c0.001,0,0.001,0,0.001,0c0.729,0,1.413-0.284,1.927-0.798	c0.515-0.515,0.799-1.199,0.799-1.926c0-0.728-0.284-1.412-0.799-1.927L30.158,5.09c-1.353-1.354-3.154-2.099-5.072-2.099	c-1.919,0-3.721,0.745-5.073,2.099L5.171,19.932c-1.354,1.353-2.099,3.154-2.099,5.073s0.745,3.72,2.099,5.073l14.842,14.841	c1.353,1.354,3.154,2.099,5.072,2.099c1.919,0,3.721-0.745,5.073-2.099l14.841-14.841c1.354-1.353,2.099-3.154,2.099-5.073	S46.353,21.285,44.999,19.932z"/></svg>